<svg width="86" height="25" viewBox="0 0 86 25" fill="none" xmlns="http://www.w3.org/2000/svg"><g clip-path="url(#a)" fill-rule="evenodd" clip-rule="evenodd"><path d="M81.337 24.998L86.005.003H4.667L0 25h81.337v-.002z" fill="#DA2C2C"/><path d="M13.11 12.016l-.064-.726h-.132l-.136.728-1.528 8.2H9.06L11.995 4.48h2.124l.79 8.2.063.729h.133l.136-.728 1.528-8.202h2.188l-2.933 15.738H13.9l-.79-8.2zm7.615-7.54h2.387l-2.933 15.739H17.79l2.934-15.738zm5.27 7.536l-.063-.728H25.8l-.136.728-1.529 8.2h-2.188L24.88 4.474h2.123l.79 8.2.064.728h.133l.135-.727 1.53-8.202h2.19L28.911 20.21h-2.124l-.792-8.199zm6.75-4.307c.14-.75.833-3.405 3.753-3.406 2.919-.002 2.622 2.654 2.482 3.403l-1.668 8.953c-.208 1.113-.827 3.725-3.811 3.726-2.984 0-2.63-2.611-2.423-3.724l.184-.985h2.387c-.395 2.12-.458 2.697.226 2.696.597 0 .827-.514 1.05-1.712l.55-2.955a2.701 2.701 0 0 1-1.265.385c-2.454 0-2.198-2.44-2.034-3.317l.569-3.064zm3.974-.687a.596.596 0 0 0-.598-.707.986.986 0 0 0-.861.707l-.85 4.561a.622.622 0 0 0 .597.707.922.922 0 0 0 .85-.644l.862-4.624zm6.814-.259h-3.58l.426-2.291h6.013l-.43 2.313-4.89 13.427h-2.475l4.936-13.449zm4.01-2.293h5.459l-.445 2.376h-3.072l-.77 4.133h2.21l-.471 2.525h-2.21l-.804 4.328h3.072l-.445 2.377h-5.46l2.935-15.74zm11.119-.004h2.32l-5.409 15.74h-2.387l.458-15.739h2.32l-.418 8.65-.035.664h.133l.211-.664 2.807-8.65zm3.404 0h5.46l-.444 2.377H64.01l-.77 4.132h2.21l-.47 2.525h-2.211l-.806 4.329h3.073l-.444 2.376h-5.46l2.934-15.739zm7.901 7.535l-.063-.728h-.132l-.136.728-1.53 8.2h-2.19l2.937-15.739h2.123l.793 8.201.065.73h.133l.135-.729 1.53-8.201h2.189l-2.933 15.739h-2.123l-.798-8.201z" fill="#fff"/></g><defs><clipPath id="a"><path fill="#fff" d="M0 0h86v25H0z"/></clipPath></defs></svg>