<svg width="73" height="56" viewBox="0 0 73 56" fill="none" xmlns="http://www.w3.org/2000/svg"><circle r="26" transform="matrix(-1 0 0 1 44.306 28)" fill="#F36C67" stroke="#fff" stroke-width="4"/><circle r="5" transform="matrix(-1 0 0 1 44.306 28)" fill="#0E0A0A"/><path d="M44.306 28.303a1.5 1.5 0 0 0-1.5-1.5h-38a1.5 1.5 0 0 0 0 3h38a1.5 1.5 0 0 0 1.5-1.5z" fill="#0E0A0A"/><path d="M10.17 21.56a1.5 1.5 0 0 0-2.122-2.12L.442 27.045a1.5 1.5 0 0 0 2.121 2.121l7.607-7.606z" fill="#0E0A0A"/><path d="M8.048 37.167a1.5 1.5 0 1 0 2.121-2.121l-7.606-7.607a1.5 1.5 0 1 0-2.121 2.122l7.606 7.606z" fill="#0E0A0A"/></svg>