<svg width="25" height="12" viewBox="0 0 25 12" fill="none" xmlns="http://www.w3.org/2000/svg"><path d="M0 6.034C0 5.464.457 5 1.02 5h22.96c.563 0 1.02.463 1.02 1.034 0 .572-.457 1.035-1.02 1.035H1.02C.457 7.069 0 6.606 0 6.034z" fill="#0E0A0A"/><path d="M18.306.306a1.027 1.027 0 0 1 1.453-.01l4.897 4.946a1.027 1.027 0 0 1-.01 1.452 1.027 1.027 0 0 1-1.453.01L18.296 1.76a1.027 1.027 0 0 1 .01-1.453z" fill="#0E0A0A"/><path d="M24.646 5.306a1.027 1.027 0 0 0-1.453-.01l-4.897 4.946a1.027 1.027 0 0 0 .01 1.452 1.027 1.027 0 0 0 1.453.01l4.897-4.945a1.027 1.027 0 0 0-.01-1.453z" fill="#0E0A0A"/></svg>