<svg width="32" height="31" viewBox="0 0 32 31" fill="none" xmlns="http://www.w3.org/2000/svg"><path opacity=".2" d="M31 15.5C31 23.478 24.314 30 16 30S1 23.478 1 15.5 7.686 1 16 1s15 6.522 15 14.5z" fill="#0E0A0A" stroke="#fff" stroke-width="2"/><path d="M15.136 9.13a.606.606 0 0 1-.408-.145.606.606 0 0 1-.144-.407V7.282a.61.61 0 0 1 .144-.409.555.555 0 0 1 .408-.168h1.512c.16 0 .296.056.408.168a.555.555 0 0 1 .168.409v1.296c0 .16-.056.296-.168.408a.606.606 0 0 1-.408.143h-1.512zm.192 14.807a.606.606 0 0 1-.408-.143.606.606 0 0 1-.144-.409V12.01c0-.16.048-.287.144-.383a.555.555 0 0 1 .408-.168h1.152a.48.48 0 0 1 .384.168.48.48 0 0 1 .168.383v11.377c0 .16-.056.296-.168.408a.519.519 0 0 1-.384.143h-1.152z" fill="#fff"/></svg>