<svg width="139" height="56" viewBox="0 0 139 56" fill="none" xmlns="http://www.w3.org/2000/svg"><path d="M19.143 27.736c-.549.468-1.142.891-1.646 1.404-.115.116-.215.261-.4.302-.097.024-.145.007-.097-.096.078-.413.578-.52.771-.915a1.93 1.93 0 0 0-.986.647c-.345.447-.894.63-1.268 1.032-.463.502-.968.966-1.56 1.351-.238.155-.383.258-.646.045-.093.237.315.75-.374.575-.078-.021-.308.973-.22 1.038.138.1.134.207.03.29-.578.457-.656 1.083-.697 1.722-.003.086-.04.162-.21.214.133-.337.04-.65.036-1.012-.263.141-.43.293-.563.537-.078.141-.334.22-.42.406-.17.361-.263.726-.255 1.142.01.633-.149 1.262-.226 1.895-.093.74-.323 1.465-.364 2.215-.026.482.082.55.582.41.138-.038.204-.121.267-.217.2.086.386.234.627.11 1.279-.183 2.558-.375 3.84-.544 3.026-.395 6.055-.646 9.118-.478 1.824.1 3.622.3 5.313.97 1.486.588 2.884 1.328 4.089 2.356.315.272.723.45 1.001.774.063.072.156.12.193.224.081.227.144.488.523.41.04-.008.122.034.137.068.189.488.626.85.827 1.341-.853-.725-1.954-1.117-2.74-1.909-.234-.233-.56-.412-.875-.553-1.228-.544-2.407-1.18-3.715-1.576-1.153-.347-2.329-.492-3.522-.615-1.424-.148-2.855-.124-4.268-.031-.949.062-1.916.11-2.866.275-.793.14-1.601.189-2.398.299-.746.1-1.458.334-2.221.389-.764.051-1.513.258-2.273.385-.552.093-1.179.801-.971 1.262.181.4-.063.688-.06 1.025-.104.024-.152 0-.11-.103-.005-.382-.016-.764-.008-1.142.003-.148-.015-.279-.186-.303-.152-.024-.204.093-.237.214-.06.196-.107.254-.248.024-.049-.08-.167.069-.152.165.096.643-.004 1.297-.063 1.92-.112 1.138.018 2.252.01 3.38 0 .282.016.296.316.41.173.065.236.275.206.496a.854.854 0 0 1-.188.432c-.292.34-.292.588.07.874.36.282.25.722.327 1.087.074.34.119.68.293.99a.35.35 0 0 0 .115.131c.05.03.11.032.182-.014.196-.12.033-.172-.07-.227a.278.278 0 0 1-.112-.093c-.071-.105-.056-.244-.067-.343-.047-.485-.247-.95-.276-1.436a1.728 1.728 0 0 1 .017-.377c.052-.134.055-.382.274-.096-.022.185-.074.357-.011.564.182.598.315 1.214.467 1.82.078.16.074.305-.122.395-.223.086-.434.2-.404.46.03.252.315.286.474.3.493.038.69.492 1.127.585-.645.096-2.08-.489-2.499-.915-1.053-1.07-1.509-2.34-1.586-3.756-.07-1.27-.208-2.539-.193-3.804.007-.809.04-1.62.089-2.429.007-.137-.034-.254-.09-.392-.207-.526-.548-.382-.867-.193-.16.093-.315-.068-.46.083.167.22.456.02.634.158-.096.21-.318.1-.47.162-1.413.55-2.803.217-4.108-.261-.797-.293-1.64-.71-1.873-1.676-.089-.371.119-.591.267-.825a9.064 9.064 0 0 1 1.346-1.606c.96-.936 1.82-1.968 2.8-2.883 1.126-1.052 2.22-2.132 3.429-3.113.634-.512 1.134-1.093 1.142-2.008.007-.65.263-1.325.422-1.985a566.54 566.54 0 0 1 1.339-5.397c.126-.498.289-.99.486-1.468.17-.413.063-.843.196-1.266.463-1.472.834-2.969 1.286-4.448.278-.915.638-1.809.957-2.713.493-1.397.953-2.807 1.583-4.152.556-1.18 1.227-2.311 1.835-3.47a6.92 6.92 0 0 1 .79-1.156c.475-.585 1.146-.747 1.858-.754.604-.006 1.12.293 1.568.66.167.138.285.324.434.503-.538-.058-.994.206-1.31.774-.455.822-.84 1.685-1.367 2.47-.734 1.097-1.18 2.31-1.695 3.49-.47 1.084-.9 2.188-1.293 3.306a54.384 54.384 0 0 0-.931 2.979c-.382 1.317-.82 2.624-1.123 3.955-.36 1.58-.78 3.14-1.202 4.702-.2.74-.192.757-.493 1.043.453-1.906.901-3.78 1.346-5.655.07-.716.163-1.424.478-2.091-.289.522-.34 1.104-.463 1.668-.037.168-.056.32-.215.426-.427.895-.553 1.868-.834 2.803-.182.602-.282 1.222-.4 1.837-.034.172-.134.296-.264.475a28.92 28.92 0 0 0-.16-.423c-.051.062-.096.093-.103.127-.097.413-.434.77-.212 1.273.052.113-.24.557-.315.877-.037.162-.096.306.023.45.137-.017.181-.11.21-.199.012-.034-.033-.086-.051-.13.482.254.437-.2.604-.383.215-.233.123-.588.408-.825v.647c.638-.668 1.409-1.029 1.954-1.645.456-.515 1.138-.784 1.613-1.296.797-.864 1.768-1.576 2.691-2.308 1.19-.95 2.344-1.937 3.563-2.855 1.524-1.149 2.992-2.356 4.512-3.509 1.198-.904 2.447-1.75 3.649-2.648.856-.64 1.668-1.324 2.506-1.981.245-.193.515-.358.756-.554.7-.56 1.435-.475 2.177-.103.418.21.537.643.763.987.078.12-.11.19-.185.268-.52.554-1.18.96-1.78 1.428-.778.609-1.62 1.149-2.395 1.75-.912.706-1.794 1.445-2.77 2.071-1.123.723-2.172 1.534-3.21 2.343-1.009.784-2.024 1.568-3.014 2.383a51.014 51.014 0 0 1-2.473 1.93c-.675.485-1.272 1.07-1.902 1.61-.23.024-.178-.148-.219-.276-.39.3-.764.602-1.179.86-.048.059-.1.117-.148.2.07-.073.1-.148.156-.203.263-.08.393-.385.715-.361.078.01.141.048.13.137z" fill="#0E0A0A"/><path d="M10.184 49.965a.854.854 0 0 1-.188.431c-.292.34-.292.588.07.874.36.282.25.722.327 1.087.074.34.119.68.293.99a.35.35 0 0 0 .115.131v-.334c-.071-.105-.056-.244-.067-.343-.047-.485-.247-.95-.276-1.436a5.898 5.898 0 0 1-.274-1.4zm30.333-21.782c-.1.162-.204.324-.304.482-.42-.024-.664.13-.809.523-.092.248-.311.471-.463.708-.434.809-.823 1.641-1.431 2.363-.415.293.233.358.14.582-.27.701-.819 1.252-1.234 1.87-.463.692-1.016 1.335-1.564 1.975a13.56 13.56 0 0 1-1.265 1.3c-.511.454-2.117.482-2.884.117-1.216-.574-1.657-1.547-1.784-2.748-.137-1.283-.07-2.538.149-3.811.237-1.38.485-2.759.964-4.08.204-.563.345-1.159.693-1.681.404-.616.734-.73 1.42-.4.393.19.586.558.853.857.085.096-.008.179-.056.268-1.153 2.075-1.56 4.317-1.772 6.611-.074.83-.1 1.651-.07 2.48.01.255.1.485.151.726.049.217-.03.55.227.595.23.038.47-.193.645-.378.675-.72 1.364-1.424 2.02-2.16.771-.86 1.354-1.834 2.025-2.749.76-1.035 1.368-2.167 2.035-3.26.3-.492.538-1.022.879-1.486.474-.643.871-1.342 1.501-1.875.734-.619 1.776-.433 2.306.385.215.334.334.723.66.994.186.155.134.382.086.565-.249.942-.197 1.933-.568 2.868-.096.244-.063.605-.081.915-.037.034-.074.041-.115.01-.045-.037-.06-.13-.134-.11-.066.018-.048.104-.059.162-.04.213-.1.423-.033.643.003.073-.008.138-.078.18-.208.725-.148 1.44.074 2.152.14.45.323.888.467 1.335.249.767.801.946 1.439.399a15.966 15.966 0 0 0 1.98-2.043c.8-.984 1.538-2.002 2.283-3.024.108-.151.204-.31.312-.46.467-.661.96-1.297 1.639-1.796.103-.08.252-.293.24-.375-.055-.368.32-.33.497-.63-.018.351-.189.547-.126.771-.167.148-.204.382-.404.506-.052.815-.504 1.5-.9 2.184-.327.56-.69 1.104-.957 1.692-.008.02-.011.045-.019.065-.152.262-.285.53-.448.788-.045.158-.204.227-.3.35-.086.121-.142.259-.23.38-.082.11.04.072.085.085.092.024.174.055.222.138-.582.712-1.209 1.396-1.735 2.14-.449.632-1.008.938-1.802.753-.397-.093-.779.058-1.19-.076-1.524-.495-2.236-1.569-2.599-2.93-.449-1.68-.208-3.34.044-5.019.078-.52.204-1.07.093-1.617-.037-.175-.111-.21-.27-.165-.16-.093-.286-.196-.216-.395.093-.093.264-.093.342-.279-.108.103-.167.19-.282.2-.163.04-.326.082-.297.292-.052.371-.437.622-.397 1.049.093.083.323-.13.405.09zm56.907-4.898c1.008-.168 1.53.72 2.269 1.245.063.045.089.11.044.172-.07.093-.174.09-.285.076-.527-.069-1.06-.106-1.576-.206-.245-.048-.523-.114-.656-.372a.405.405 0 0 0-.323-.237c-.3-.024-.4-.182-.37-.437.03-.3.278-.24.485-.244.082.003.17.003.412.003z" fill="#0E0A0A"/><path d="M35.93 33.443c-.203-.159-.54-.272-.244-.606.456-.151.675-.488.808-.89.1-.303.248-.554.641-.572.023.073 0 .138-.03.203-.066.513-.478.86-.748 1.266-.134.193-.182.464-.427.599z" fill="#0E0A0A"/><path d="M37.106 31.575c-.008-.086-.019-.175-.026-.261-.052-.152-.063-.29.133-.362.204-.155.382-.323.416-.584.003-.035.051-.062.081-.093.019.058.033.117.052.175-.07.45-.43.753-.656 1.125z" fill="#0E0A0A"/><path fill-rule="evenodd" clip-rule="evenodd" d="M102.66 37.629c.087-.122.173-.243.092-.403-.025-.05-.07-.099-.114-.148-.095-.106-.189-.212-.09-.313.069-.072.129-.155.189-.237.13-.181.262-.364.504-.444.175.068.131.165.086.261-.032.07-.063.138-.016.197a.353.353 0 0 0 .067.12c.017.17-.019.333-.055.496-.042.19-.085.38-.045.58.323 1.648 1.127 3.045 2.692 3.908 1.06.588 2.295.819 3.544.856.067.004.159-.013.197-.055.296-.344.703-.498 1.115-.652.134-.05.269-.102.401-.16a8.4 8.4 0 0 0 .851-.447c.45-.259.902-.52 1.44-.653.399-.098.757-.387 1.097-.662l.201-.16c.21-.163.422-.324.634-.484.37-.28.739-.56 1.097-.854.477-.389.926-.804 1.374-1.217l.202-.186a11.735 11.735 0 0 0 2.046-2.443c.067-.113.156-.223.301-.264.091.18.09.373.089.564a2.534 2.534 0 0 0 0 .123l.026 2.056c.008.692.016 1.384.026 2.075.001.185.006.37.01.553.01.388.02.775-.003 1.167-.041.705.241 1.424.627 2.081.137.238.296.358.53.513.31.205.651.253.988.3.211.03.42.059.621.126.567.19.919.024 1.223-.485.29-.488.549-.997.79-1.503.623-1.307 1.212-2.628 1.687-3.99.289-.826.552-1.66.814-2.495.365-1.158.731-2.317 1.166-3.459.465-1.229 1.263-2.235 2.068-3.251l.201-.254c.226-.285.563-.264.801-.055.237.21.4.54.385.83-.018.456.05.898.118 1.34l.042.272a187.6 187.6 0 0 0 .697 4.362c.252 1.493.619 2.958 1.486 4.258.749 1.128 1.962 1.52 3.311 1.575l.04.002c.241.011.552.026.787-.225a20.025 20.025 0 0 0-.413-.199 8.099 8.099 0 0 1-.981-.52c-.184-.121-.392-.197-.599-.273-.306-.112-.611-.224-.843-.48-.21-.232-.282-.492-.354-.754-.035-.127-.07-.254-.121-.378-.315-.777-.497-1.596-.634-2.394-.18-1.053-.279-2.116-.378-3.179-.048-.51-.095-1.02-.152-1.53-.163-1.482-1.227-2.552-2.451-3.453l-.031-.023a12.63 12.63 0 0 0-.432-.304c-1.201-.784-2.225-.616-2.873.492-.523.89-1.009 1.813-1.398 2.78-.414 1.021-.76 2.064-1.106 3.106-.414 1.246-.827 2.49-1.356 3.7-.157.359-.293.725-.429 1.092-.27.726-.54 1.452-.969 2.117-.018.027-.033.058-.05.089-.064.123-.135.258-.369.255.075-.547.004-1.077-.067-1.606-.042-.316-.085-.632-.096-.95a24.581 24.581 0 0 0-.041-.716c-.072-1.062-.144-2.12.434-3.129.096-.167.135-.362.174-.555l.023-.112c.089-.402.33-.86.571-1.056.404-.328.499-.682.61-1.094l.009-.034c.018-.066.034-.132.051-.199.096-.379.193-.764.483-1.074l.006-.006c.25-.262.251-.263-.103-.396.065-.076.156-.135.246-.194.163-.106.322-.21.31-.405-.011-.172.044-.335.098-.498.074-.22.148-.44.058-.682-.041-.106.071-.22.193-.271.326-.138.437-.427.541-.702.294-.77.575-1.546.855-2.32l.061-.167c.098-.27.201-.54.303-.808.281-.733.56-1.465.75-2.236.138-.55.349-1.096.56-1.64.085-.217.169-.434.248-.65.079-.218.132-.442.185-.665.074-.31.147-.62.29-.908l.076-.15c.119-.23.235-.457.269-.723a8.9 8.9 0 0 1 .25-1.172l.042-.166c.046-.18.115-.349.185-.519.123-.299.247-.603.249-.977.006-.489.173-.996.338-1.494.05-.151.099-.301.144-.45.228-.762.38-1.536.532-2.308l.117-.588c.397-1.978.767-3.962.79-5.988.007-.733-.03-1.393-.608-1.978-.169-.168-.374-.228-.58-.288-.164-.048-.329-.097-.477-.2-.374-.258-1.045.01-1.379.368a7.534 7.534 0 0 0-1.442 2.249c-.203.48-.43.952-.657 1.423-.152.315-.304.63-.448.947-.168.37-.311.749-.454 1.127-.147.39-.294.781-.469 1.164-.392.854-.64 1.751-.888 2.65-.234.846-.467 1.693-.822 2.506-.044.102-.112.21-.179.316-.133.212-.263.419-.206.575.155.43-.023.78-.191 1.109-.064.126-.127.25-.169.373-.194.564-.319 1.14-.443 1.717-.126.58-.251 1.16-.447 1.723-.191.552-.293 1.12-.395 1.688-.052.29-.104.58-.168.867-.048.216-.102.431-.155.646-.103.413-.206.826-.271 1.242-.045.282-.088.563-.131.845-.16 1.052-.321 2.104-.567 3.149-.206.885-.278 1.802-.35 2.71l-.017.21c-.051.654-.129 1.235-.659 1.768a15.626 15.626 0 0 0-1.902 2.339c-.968 1.455-2.229 2.624-3.734 3.58-1.583 1.005-3.34 1.703-5.113 2.357a4.26 4.26 0 0 0-.333.145c-.348.163-.715.335-1.124.202-.526-.171-1.046-.139-1.578-.106l-.101.006c-.649.042-1.053-.227-1.205-.767-.36-1.29-.397-2.62.03-3.866.341-.994.83-1.96 1.397-2.9.599-.991 1.42-1.771 2.243-2.553.253-.24.506-.48.753-.728.1-.1.219-.189.36-.044.026.027.061.051.095.075.096.067.192.134.127.275-.069.148-.133.3-.197.451-.17.403-.341.808-.607 1.145-.297.379-.408.76-.453 1.18-.074.712.82 1.307 1.524 1.025.037-.017.067-.072.082-.113.18-.568.478-1.088.777-1.61.327-.57.655-1.143.828-1.778.259-.953.319-1.82-.386-2.718-.756-.963-1.928-.945-2.829-.357-.418.274-.734.631-1.05.988-.167.19-.335.38-.518.556l-.005.005c-.436.425-.89.867-1.192 1.374-.511.855-1.086 1.668-1.662 2.48-.215.304-.429.607-.641.912-.434.626-.929 1.211-1.423 1.796-.243.288-.487.576-.723.87-.057.07-.139.13-.221.188-.111.08-.22.159-.254.262-.158.464-.519.763-.884 1.065-.268.223-.539.448-.732.74-.292.442-.81.763-1.32 1.078-.157.098-.314.195-.464.295-.411.279-.845.176-1.079-.127-.355-.46-.54-1.032-.634-1.52-.103-.544-.159-1.187-.051-1.734.072-.373.06-.742.046-1.112-.012-.348-.024-.697.035-1.051.03-.186.056-.372.082-.557.1-.703.197-1.4.511-2.064a.565.565 0 0 0 .06-.241c-.03-.457.157-.854.344-1.254.122-.26.244-.52.308-.8l.055-.23c.166-.69.172-.713-.633-1.094a1.32 1.32 0 0 0-.099-.041c-.049-.02-.098-.039-.142-.065-.39-.241-.797-.21-1.209-.059a1.52 1.52 0 0 1-.045.016c-.103.037-.226.08-.203.208.099.532-.093 1.007-.285 1.48-.095.236-.19.472-.25.714a31.21 31.21 0 0 1-.173.67c-.125.468-.252.94-.327 1.4a18.467 18.467 0 0 0-.211 1.954c-.063 1.122-.004 2.216.1 3.333.126 1.38.72 2.398 1.972 3.086.523.285 1.165.382 1.728.368.68-.019 1.317-.282 1.948-.544.191-.08.382-.158.573-.23a.819.819 0 0 0 .204-.127c.101-.077.205-.158.367-.172.171-.014.119-.128-.059-.18-.096-.03-.126-.181-.085-.299.037.012.074 0 .113-.011.064-.02.131-.04.205.046.104.124.152.034.112-.09.003-.23.126-.367.378-.395.01-.302.25-.353.491-.405l.035-.008c.042-.115.029-.232.015-.348-.012-.112-.025-.225.011-.336.072-.017.122-.079.172-.14.087-.108.173-.215.373-.084-.049-.141.03-.253.109-.364zm27.939-29.804c.164-.946.33-1.9.33-2.917-.475.21-.838.378-1.079.78-.218.383-.382.783-.547 1.184-.137.334-.274.67-.443.994-.484.93-.851 1.902-1.218 2.874a41.69 41.69 0 0 1-.725 1.831c-.688 1.585-1.099 3.252-1.508 4.91l-.082.335a86.467 86.467 0 0 0-.47 2.065c-.061.277-.121.553-.183.828-.273 1.218-.481 2.443-.689 3.668-.071.42-.142.839-.216 1.258a.842.842 0 0 1-.129.323c-.167.24-.16.502-.141.767.006.074.02.144.034.215.04.194.08.386-.068.631-.101.172-.131.412-.162.653-.014.111-.028.223-.049.328a1.986 1.986 0 0 0-.024.245 1.749 1.749 0 0 1-.043.35c-.044.178.071.271.256.313.345.079.497-.1.593-.362.194-.528.425-1.044.657-1.56.359-.8.717-1.6.934-2.447.043-.166.139-.297.236-.43.096-.132.192-.265.238-.433.316-1.135.649-2.277 1.09-3.374.296-.735.534-1.485.771-2.233l.138-.433c.107-.335.194-.676.281-1.017.113-.446.226-.891.386-1.322.36-.973.627-1.978.805-2.972.113-.64.261-1.272.409-1.906.176-.749.351-1.499.469-2.26.046-.295.098-.59.149-.886z" fill="#0E0A0A"/><path fill-rule="evenodd" clip-rule="evenodd" d="M68.642 31.532l.052-.28c.068-.046.069-.11.07-.175 0-.05.002-.1.03-.145.156-.174.152-.374.148-.575a1.303 1.303 0 0 1 .023-.337c.107-.442.256-.874.406-1.305.198-.57.395-1.141.495-1.739.063-.371.018-.743-.286-.887-.615-.296-1.272-.55-1.972-.647-.212-.03-.456-.01-.597.148-.117.132-.007.283.08.401l.035.05c.218.32.233.65.178 1.004-.08.505-.127 1.014-.174 1.523-.025.266-.05.533-.078.799-.04.36-.019.718.002 1.076.027.463.053.927-.047 1.403-.202.97-.285 1.965-.368 2.96-.023.281-.047.563-.073.845-.03.323-.182.36-.478.36a53.579 53.579 0 0 1-.621-.008c-.817-.015-1.634-.03-2.457.102-.982.158-1.22-.062-1.249-.998-.048-1.434-.66-2.603-1.787-3.553-.708-.595-1.442-1.094-2.499-1.063-.41.013-.828-.01-1.247-.032l-.462-.023c-.412-.017-.56-.234-.33-.54.056-.075.1-.163.147-.253.14-.273.285-.555.746-.503.052.006.075-.018.078-.08.027-.318.246-.52.463-.72.087-.081.175-.162.25-.25.142-.169.32-.316.496-.462.207-.172.413-.343.563-.549.302-.414.67-.774 1.037-1.135.28-.274.559-.548.81-.846.346-.411.73-.804 1.115-1.198a27.3 27.3 0 0 0 .954-1.01c.107-.124.178-.244.144-.4a6.398 6.398 0 0 1-.075-.421c-.046-.295-.091-.59-.221-.868-.264-.557-1.016-.801-1.517-.475-.719.466-1.465.892-2.212 1.318-.955.545-1.91 1.09-2.808 1.72-.067.047-.133.099-.199.151-.155.124-.31.248-.49.306-.559.177-1.04.469-1.524.762-.127.077-.253.154-.382.229l-.229.136c-.517.313-1.045.632-1.718.596-.203-.012-.212.092-.221.207l-.005.044c-.081.643 1.094 1.517 1.75 1.225.275-.123.559-.225.843-.327.53-.19 1.06-.38 1.523-.702.23-.158.515-.261.734-.058.223.21.054.403-.098.579-.02.023-.04.045-.058.068-.296.355-.628.68-.96 1.006-.206.203-.414.407-.612.617-.97 1.03-1.904 2.09-2.84 3.15l-.152.173c-.233.268-.156.609.063.808.664.602 1.765 1.149 2.933.509 1.527-.84 3.236-1.07 4.994-.998.893.038 1.468.554 1.553 1.383a4 4 0 0 1-.014.895c-.013.105-.03.209-.047.313-.03.178-.06.356-.065.543-.026.826-.47 1.293-1.338 1.527a7.396 7.396 0 0 1-.374.085 5.837 5.837 0 0 0-.457.108c-.867.256-1.714.565-2.561.873-.36.131-.719.262-1.08.39-.398.14-.765.325-1.13.51-.216.11-.431.219-.653.318-.585.26-1.127.587-1.67.914-.46.278-.92.555-1.407.792-.077.038-.166.048-.248.058a.494.494 0 0 0-.215.056c-.601.433-1.183.887-1.747 1.358l-.178.148c-.39.322-.785.648-1.071 1.039l-.061.083c-.336.458-.676.92-.966 1.413-.664 1.135-.653 2.288-.156 3.433.338.784 1.023 1.369 1.78 1.792.786.437 1.672.798 2.562.117a.641.641 0 0 1 .237-.11c.736-.19 1.33-.622 1.902-1.039l.219-.158c1.498-1.077 2.914-2.25 4.156-3.591l.305-.328c.435-.466.869-.932 1.26-1.433.085-.11.162-.227.24-.344.227-.35.457-.7.931-.846.063-.017.156-.165.137-.19-.252-.323-.043-.515.153-.696.052-.047.103-.094.144-.143.142-.166.297-.324.451-.482.432-.44.863-.88 1.013-1.495.055-.223.21-.39.365-.554.17-.181.34-.362.373-.616.056-.413.3-.65.749-.719.174-.027.367-.062.508-.148.937-.572 2-.686 3.061-.8.19-.02.38-.04.569-.063.352-.041.619-.062.474.437a3.085 3.085 0 0 0-.088.504c-.022.19-.044.381-.105.569-.047.15.007.302.062.456.078.217.157.437-.047.658.011.004.022.01.032.016.018.01.035.019.053.019.173-.002.314.077.453.154.123.069.245.137.385.145.087.005.182.02.279.036.29.047.596.097.752-.122.56-.791 1.046-1.634 1.524-2.473.415-.726.812-1.462 1.16-2.219.159-.347.392-.643.624-.94a8.16 8.16 0 0 0 .381-.511 58.83 58.83 0 0 0 1.127-1.786c.703-1.144 1.406-2.288 2.262-3.346l.035-.043c.165-.205.351-.435.625-.38.315.065.344.399.36.664.015.307.033.615.051.922.052.87.104 1.741.093 2.61-.015 1.242.178 2.442.504 3.636.249.901.934 1.386 1.802 1.661.552.176 1.16.165 1.75.127a.556.556 0 0 1 .08.004c.075.007.153.014.202-.072.176-.313.412-.588.648-.864.25-.292.5-.586.683-.925a6.6 6.6 0 0 1 .486-.732c.161-.22.322-.44.455-.675.105-.185.23-.36.354-.534.181-.254.361-.506.473-.783.423-1.05 1-2.022 1.576-2.996.268-.452.537-.905.79-1.366.065-.119.173-.127.283-.136.096-.008.192-.016.262-.097.033-.035.103.21.118.33.075.697.089 1.397.103 2.097.006.309.012.618.023.926.056 1.431.434 2.803.975 4.152.5 1.241 1.398 2.105 2.67 2.617.945.382 1.946.647 3.003.664.549.007.723-.093.808-.66-.589.153-1.158.121-1.75.088l-.104-.006c-1.012-.058-1.58-.553-2.057-1.22-1.06-1.483-1.305-3.196-1.45-4.909-.084-.99-.108-1.985-.13-2.98-.013-.535-.026-1.07-.048-1.605-.022-.53-.048-1.066-.133-1.59-.134-.832-.842-1.155-1.576-1.468-.56-.237-1.068-.213-1.394.258-.1.145-.204.288-.307.432-.373.52-.747 1.04-1.006 1.625-.044.102-.087.207-.129.313-.14.347-.281.699-.523.973-.37.424-.608.888-.85 1.366-.704 1.407-1.478 2.78-2.38 4.086-.137.2-.27.402-.405.604-.165.25-.33.5-.503.745-.122.172-.296.313-.534.268-.218-.041-.3-.23-.337-.41a3.787 3.787 0 0 1-.1-.736c-.015-.76-.03-1.523.004-2.284a.593.593 0 0 0-.076-.246c-.093-.2-.189-.409.228-.517.01-.003.014-.134-.023-.172-.219-.226-.224-.49-.228-.754-.002-.107-.004-.214-.02-.32-.036-.235-.052-.475-.068-.714-.05-.748-.1-1.494-.755-2.12-.616-.588-1.253-1.124-2.087-1.389-.438-.141-.953-.09-1.298.255-.099.098-.2.195-.3.292-.444.428-.89.86-1.202 1.386-.213.36-.473.69-.733 1.02a10.68 10.68 0 0 0-.664.906c-.087.136-.159.281-.231.426-.123.246-.247.493-.44.699-.334.35-.571.75-.772 1.18-.08.17-.192.33-.305.489a4.76 4.76 0 0 0-.24.364c-.124.219-.334.26-.543.3a1.206 1.206 0 0 0-.332.099c-.133-.255-.24-.52-.21-.798.026-.264.076-.525.125-.786zM46.987 46.014c-.497.674-.98 1.355-.935 2.03-.018.853.086.987.782 1.052 1.068.1 2.04-.261 2.852-.818l.36-.248c1.271-.876 2.546-1.753 3.68-2.8 1.194-1.098 2.203-2.327 3.213-3.558l.406-.494a4.62 4.62 0 0 0 .451-.698c.145-.257.29-.514.487-.743.423-.495.356-.654-.252-.956-.237-.118-.359-.028-.494.072a1.071 1.071 0 0 1-.166.107c-.338.165-.68.325-1.02.485-1.051.493-2.102.986-3.062 1.63-.26.173-.544.315-.827.456-.365.182-.728.363-1.03.607-.222.178-.46.332-.698.487-.29.188-.581.377-.845.61-.244.218-.494.43-.744.642-.778.66-1.555 1.32-2.159 2.137z" fill="#0E0A0A"/><path d="M61.707 54.11a.245.245 0 0 1-.18-.075.245.245 0 0 1-.074-.18v-6.893c0-.077.02-.141.063-.19a.258.258 0 0 1 .19-.075h.827c.134 0 .236.06.307.18l3.028 4.702v-4.617c0-.077.021-.141.063-.19a.258.258 0 0 1 .19-.075h.912a.255.255 0 0 1 .264.265v6.882a.258.258 0 0 1-.074.191.245.245 0 0 1-.18.074h-.836a.345.345 0 0 1-.318-.18l-3.018-4.595v4.521c0 .07-.024.13-.074.18a.224.224 0 0 1-.18.074h-.91zm7.835 0a.215.215 0 0 1-.222-.223l.021-.096 2.541-6.829c.07-.176.198-.265.381-.265h1.165c.184 0 .31.089.381.265l2.541 6.83.021.095a.2.2 0 0 1-.074.158.203.203 0 0 1-.148.064h-.942a.307.307 0 0 1-.307-.201l-.487-1.281h-3.134l-.487 1.28a.307.307 0 0 1-.308.202h-.942zm2.107-2.711h2.393l-1.196-3.261-1.197 3.26zm7.868 2.711a.245.245 0 0 1-.18-.075.245.245 0 0 1-.074-.18v-5.834h-1.959a.245.245 0 0 1-.18-.074.258.258 0 0 1-.074-.19v-.795c0-.077.021-.141.064-.19a.258.258 0 0 1 .19-.075h5.41a.256.256 0 0 1 .265.265v.794a.258.258 0 0 1-.074.19.258.258 0 0 1-.19.075h-1.949v5.834c0 .07-.024.13-.074.18a.224.224 0 0 1-.18.074h-.995zm4.364 0a.215.215 0 0 1-.222-.223l.021-.096 2.541-6.829c.07-.176.198-.265.382-.265h1.164c.184 0 .31.089.381.265l2.541 6.83.022.095a.2.2 0 0 1-.075.158.203.203 0 0 1-.148.064h-.942a.307.307 0 0 1-.307-.201l-.487-1.281h-3.134l-.487 1.28a.307.307 0 0 1-.307.202h-.943zm2.107-2.711h2.393l-1.196-3.261-1.197 3.26zm7.013 2.711a.245.245 0 0 1-.18-.075.245.245 0 0 1-.074-.18v-6.903c0-.078.025-.138.074-.18.05-.05.11-.075.18-.075h.995c.078 0 .138.025.18.075.05.042.075.102.075.18v5.887h3.356c.078 0 .141.024.19.074.05.049.075.109.075.18v.762c0 .07-.025.13-.075.18a.258.258 0 0 1-.19.074H93zm7.211 0a.247.247 0 0 1-.18-.075.246.246 0 0 1-.074-.18v-6.903c0-.078.025-.138.074-.18.05-.05.11-.075.18-.075h1.017c.077 0 .137.025.18.075a.226.226 0 0 1 .074.18v6.903c0 .07-.025.13-.074.18a.226.226 0 0 1-.18.074h-1.017z" fill="#FFF"/></svg>