<svg width="242" height="167" viewBox="0 0 242 167" fill="none" xmlns="http://www.w3.org/2000/svg"><g clip-path="url(#a)"><path d="M31.583 15.04a7.204 7.204 0 0 1 8.823-5.094l194.647 52.156a7.204 7.204 0 0 1 5.094 8.822l-30.187 112.66a7.204 7.204 0 0 1-8.823 5.094L6.49 136.521a7.203 7.203 0 0 1-5.094-8.822l30.187-112.66z" fill="url(#b)" filter="url(#c)"/><path fill-rule="evenodd" clip-rule="evenodd" d="M43.838 10.866c-4.953-1.328-9.492 2.766-8.262 7.743 5.656 22.877 24.755 76.404 81.89 93.042 57.539 16.756 101.426-22.094 117.688-39.64 3.455-3.729 1.539-9.47-3.37-10.785L43.838 10.865zm77.333 96.584a4.171 4.171 0 1 0 0-8.343 4.171 4.171 0 0 0 0 8.343z" fill="url(#d)" filter="url(#e)"/><path opacity=".05" fill="#0E0A0A" d="M69.157 112.433l.393 1.465-56.417 15.117-.393-1.465zm132.431 67.405l1.073-1.073-41.3-41.3-1.073 1.073z"/></g><defs><filter id="c" x="-6.436" y="5.148" width="254.416" height="194.396" filterUnits="userSpaceOnUse" color-interpolation-filters="sRGB"><feFlood flood-opacity="0" result="BackgroundImageFix"/><feColorMatrix in="SourceAlpha" values="0 0 0 0 0 0 0 0 0 0 0 0 0 0 0 0 0 0 127 0"/><feOffset dy="3.034"/><feGaussianBlur stdDeviation="3.793"/><feColorMatrix values="0 0 0 0 0.783333 0 0 0 0 0.336414 0 0 0 0 0.319861 0 0 0 0.4 0"/><feBlend in2="BackgroundImageFix" result="effect1_dropShadow"/><feBlend in="SourceGraphic" in2="effect1_dropShadow" result="shape"/></filter><filter id="e" x="26.368" y="5.21" width="219.547" height="123.15" filterUnits="userSpaceOnUse" color-interpolation-filters="sRGB"><feFlood flood-opacity="0" result="BackgroundImageFix"/><feColorMatrix in="SourceAlpha" values="0 0 0 0 0 0 0 0 0 0 0 0 0 0 0 0 0 0 127 0"/><feOffset dy="3.602"/><feGaussianBlur stdDeviation="4.502"/><feColorMatrix values="0 0 0 0 0.783333 0 0 0 0 0.336414 0 0 0 0 0.319861 0 0 0 0.4 0"/><feBlend in2="BackgroundImageFix" result="effect1_dropShadow"/><feBlend in="SourceGraphic" in2="effect1_dropShadow" result="shape"/></filter><linearGradient id="b" x1="-.468" y1="134.657" x2="210.959" y2="23.782" gradientUnits="userSpaceOnUse"><stop stop-color="#F5A3B2"/><stop offset="1" stop-color="#A680E2"/></linearGradient><linearGradient id="d" x1="13.184" y1="83.708" x2="144.313" y2="-34.579" gradientUnits="userSpaceOnUse"><stop stop-color="#F5A3B2"/><stop offset="1" stop-color="#A680E2"/></linearGradient><clipPath id="a"><path fill="#fff" d="M0 0h242v167H0z"/></clipPath></defs></svg>