<svg width="50" height="19" viewBox="0 0 50 19" fill="none" xmlns="http://www.w3.org/2000/svg"><circle r="5" transform="matrix(-1 0 0 1 44.304 9)" fill="#0E0A0A"/><path d="M44.304 9.303a1.5 1.5 0 0 0-1.5-1.5h-38a1.5 1.5 0 0 0 0 3h38a1.5 1.5 0 0 0 1.5-1.5z" fill="#0E0A0A"/><path d="M10.168 2.56A1.5 1.5 0 1 0 8.046.44L.44 8.045a1.5 1.5 0 0 0 2.121 2.121l7.607-7.606z" fill="#0E0A0A"/><path d="M8.046 18.167a1.5 1.5 0 1 0 2.122-2.121L2.56 8.439A1.5 1.5 0 0 0 .44 10.56l7.606 7.607z" fill="#0E0A0A"/></svg>