<svg width="228" height="233" viewBox="0 0 228 233" fill="none" xmlns="http://www.w3.org/2000/svg"><circle opacity=".9" cx="123" cy="90" r="88" fill="url(#a)" stroke="#fff" stroke-width="4"/><g opacity=".9" filter="url(#b)"><path d="M92.69 48.383c0-7.925 8.779-12.701 15.433-8.396l62.284 40.307c6.089 3.941 6.089 12.85 0 16.791l-62.284 40.307c-6.654 4.306-15.433-.47-15.433-8.395V48.383z" fill="url(#c)"/><path d="M94.69 48.383c0-6.34 7.024-10.161 12.346-6.716l62.284 40.307c4.872 3.152 4.872 10.28 0 13.432l-62.284 40.307c-5.322 3.445-12.346-.376-12.346-6.716V48.383z" stroke="#F36C67" stroke-width="4"/></g><defs><filter id="b" x=".229" y="5.242" width="226.896" height="226.896" filterUnits="userSpaceOnUse" color-interpolation-filters="sRGB"><feFlood flood-opacity="0" result="BackgroundImageFix"/><feColorMatrix in="SourceAlpha" values="0 0 0 0 0 0 0 0 0 0 0 0 0 0 0 0 0 0 127 0"/><feOffset dy="30"/><feGaussianBlur stdDeviation="24"/><feColorMatrix values="0 0 0 0 0.6125 0 0 0 0 0.255664 0 0 0 0 0.242448 0 0 0 1 0"/><feBlend in2="BackgroundImageFix" result="effect1_dropShadow"/><feBlend in="SourceGraphic" in2="effect1_dropShadow" result="shape"/></filter><linearGradient id="a" x1="33" y1="180" x2="239.155" y2="64.658" gradientUnits="userSpaceOnUse"><stop stop-color="#F5A3B2"/><stop offset="1" stop-color="#A680E2"/></linearGradient><linearGradient id="c" x1="34" y1="96.69" x2="165.189" y2="126.801" gradientUnits="userSpaceOnUse"><stop stop-color="#F36C67"/><stop offset="1" stop-color="#F39167"/></linearGradient></defs></svg>