<svg width="32" height="31" viewBox="0 0 32 31" fill="none" xmlns="http://www.w3.org/2000/svg"><path opacity=".2" d="M31 15.5C31 23.478 24.314 30 16 30S1 23.478 1 15.5 7.686 1 16 1s15 6.522 15 14.5z" fill="#0E0A0A" stroke="#fff" stroke-width="2"/><path d="M15.856 20.073a.519.519 0 0 1-.384-.143.519.519 0 0 1-.144-.384v-.985c.032-.848.248-1.584.648-2.207.416-.624 1-1.32 1.752-2.088.576-.592 1-1.08 1.272-1.464.288-.384.456-.8.504-1.248a1.43 1.43 0 0 0 .024-.313c0-.736-.312-1.32-.936-1.752-.624-.432-1.352-.648-2.184-.648-.896 0-1.648.24-2.256.72-.592.464-.976 1.2-1.152 2.209-.064.351-.272.527-.624.527H11.32a.573.573 0 0 1-.384-.144.519.519 0 0 1-.144-.383 4.8 4.8 0 0 1 .744-2.425c.48-.752 1.144-1.344 1.992-1.776.864-.447 1.848-.671 2.952-.671 1.168 0 2.152.2 2.952.6.8.4 1.392.927 1.776 1.583a3.9 3.9 0 0 1 .576 2.04c0 .816-.184 1.52-.552 2.112-.368.592-.92 1.28-1.656 2.064-.608.656-1.064 1.216-1.368 1.68a3.12 3.12 0 0 0-.528 1.512c-.032.448-.048.784-.048 1.008-.08.384-.28.576-.6.576h-1.176zm-.216 3.864a.606.606 0 0 1-.408-.143.606.606 0 0 1-.144-.409v-1.392c0-.16.048-.295.144-.407a.555.555 0 0 1 .408-.168h1.488c.16 0 .296.056.408.168a.555.555 0 0 1 .168.408v1.392c0 .16-.056.296-.168.408a.606.606 0 0 1-.408.143H15.64z" fill="#fff"/></svg>