<svg width="32" height="32" viewBox="0 0 32 32" fill="none" xmlns="http://www.w3.org/2000/svg"><path d="M16 32c8.837 0 16-7.163 16-16S24.837 0 16 0 0 7.163 0 16s7.163 16 16 16z" fill="#61A8DE"/><path d="M21.52 9.804L7.375 15.232a.506.506 0 0 0 .042.96l3.594 1.046 1.341 4.192c.14.438.704.57 1.03.242l1.858-1.868 3.647 2.636a.764.764 0 0 0 1.195-.451l2.415-11.371c.118-.557-.439-1.021-.977-.814zm-1.773 2.523l-6.57 5.722a.346.346 0 0 0-.117.221l-.253 2.215c-.008.072-.111.082-.133.012l-1.04-3.302a.345.345 0 0 1 .15-.399l7.759-4.739c.178-.109.361.133.204.27z" fill="#fff"/></svg>