<svg width="159" height="104" viewBox="0 0 159 104" fill="none" xmlns="http://www.w3.org/2000/svg"><path opacity=".2" d="M146.2 88.4c-.533 3.733-2.267 7.333-5.2 10.8-2.667 3.2-6.667 4.8-12 4.8H79.8c-2.4 0-4.533-.8-6.4-2.4-1.6-1.867-2.4-4-2.4-6.4 0-1.067.133-2 .4-2.8l31.2-79.6c1.067-2.667 2.8-5.467 5.2-8.4 2.667-2.933 6.667-4.4 12-4.4h30c2.4 0 4.4.933 6 2.8 1.867 1.6 2.8 3.6 2.8 6v.8l-12.4 78.8zm-71 0c-.533 3.733-2.267 7.333-5.2 10.8-2.667 3.2-6.667 4.8-12 4.8H8.8c-2.4 0-4.533-.8-6.4-2.4-1.6-1.867-2.4-4-2.4-6.4 0-1.067.133-2 .4-2.8l31.2-79.6c1.067-2.667 2.8-5.467 5.2-8.4 2.667-2.933 6.667-4.4 12-4.4h30c2.4 0 4.4.933 6 2.8 1.867 1.6 2.8 3.6 2.8 6v.8L75.2 88.4z" fill="#F36C67"/><path opacity=".2" fill-rule="evenodd" clip-rule="evenodd" d="M64.8 13.894c-2.44 0-3.591.656-4.177 1.358l-.084.101-.093.093c-1.006 1.007-2.153 2.66-3.394 5.12L39.877 65.704l-.033.072c-.917 2.065-1.35 4.067-1.35 6.025 0 .897.28 1.735.966 2.592.461.577 1.059.914 2.14.914h18c2.663 0 3.85-.756 4.445-1.588l.02-.028.02-.026c1.266-1.689 2.185-3.894 2.659-6.729l.001-.01 7.61-48.066.02-.087c.412-1.856.132-2.994-.383-3.767-.464-.696-1.102-1.111-2.392-1.111h-6.8zm-8.535-2.451c2.08-2.42 5.157-3.337 8.535-3.337h6.8c2.976 0 5.539 1.185 7.208 3.689 1.601 2.402 1.866 5.23 1.237 8.141l-7.588 47.928-.002.012c-.592 3.547-1.8 6.663-3.72 9.235-2.075 2.88-5.41 3.983-9.135 3.983h-18c-2.652 0-4.988-.996-6.66-3.086-1.447-1.81-2.234-3.905-2.234-6.208 0-2.816.622-5.59 1.816-8.3l17.225-45.265.065-.13c1.376-2.752 2.845-5.026 4.453-6.662zm62.135 2.45c-2.44 0-3.591.657-4.177 1.36l-.084.1-.093.093c-1.006 1.007-2.153 2.66-3.394 5.12L93.477 65.704l-.032.072c-.918 2.065-1.351 4.067-1.351 6.025 0 .897.28 1.735.966 2.592.461.577 1.059.914 2.14.914h18c2.663 0 3.851-.756 4.445-1.588l.02-.028.02-.026c1.266-1.689 2.185-3.894 2.659-6.729l.001-.01 7.611-48.066.019-.087c.412-1.856.132-2.994-.383-3.767-.464-.696-1.102-1.111-2.392-1.111h-6.8zm-8.535-2.45c2.08-2.42 5.157-3.337 8.535-3.337h6.8c2.976 0 5.539 1.185 7.208 3.689 1.601 2.402 1.866 5.23 1.237 8.141l-7.589 47.928-.001.012c-.592 3.547-1.8 6.663-3.721 9.235-2.073 2.88-5.409 3.983-9.134 3.983h-18c-2.652 0-4.988-.996-6.66-3.086-1.447-1.81-2.234-3.905-2.234-6.208 0-2.816.623-5.59 1.817-8.301l17.224-45.264.065-.13c1.376-2.752 2.845-5.026 4.453-6.662z" fill="#F36C67" stroke="#F36C67" stroke-width="5.788"/></svg>