<svg width="24" height="24" viewBox="0 0 24 24" fill="none" xmlns="http://www.w3.org/2000/svg"><circle cx="12" cy="12" r="11.5" stroke="#F36C67"/><path d="M11.94 16.14c-.293 0-.44-.147-.44-.44v-.96c0-.507.08-.96.24-1.36.173-.413.38-.787.62-1.12.253-.347.527-.667.82-.96l.84-.88c.267-.293.493-.587.68-.88.2-.307.32-.633.36-.98.053-.413 0-.78-.16-1.1a2.22 2.22 0 0 0-.66-.82 2.714 2.714 0 0 0-1-.5 3.704 3.704 0 0 0-1.14-.18c-.787 0-1.473.213-2.06.64-.573.413-.947 1.127-1.12 2.14-.027.187-.087.307-.18.36a.595.595 0 0 1-.3.08h-.32a.453.453 0 0 1-.3-.1.407.407 0 0 1-.12-.3c.013-.56.127-1.08.34-1.56.227-.48.533-.9.92-1.26.4-.36.86-.64 1.38-.84a4.698 4.698 0 0 1 1.76-.32c.733 0 1.367.107 1.9.32.547.213.993.5 1.34.86.347.347.6.747.76 1.2.16.44.22.893.18 1.36a3.45 3.45 0 0 1-.34 1.26 5.961 5.961 0 0 1-.68 1.06c-.253.32-.533.627-.84.92a12.81 12.81 0 0 0-.82.9 5.47 5.47 0 0 0-.64.96c-.16.333-.24.7-.24 1.1v.96c0 .293-.147.44-.44.44h-.34zm.98 2.42a.4.4 0 0 1-.14.32.433.433 0 0 1-.32.12h-.76c-.293 0-.44-.147-.44-.44v-.76c0-.133.04-.24.12-.32a.4.4 0 0 1 .32-.14h.76a.4.4 0 0 1 .32.14.4.4 0 0 1 .14.32v.76z" fill="#0E0A0A"/></svg>