<svg width="25" height="25" viewBox="0 0 25 25" fill="none" xmlns="http://www.w3.org/2000/svg"><path d="M16.875 15.417c2.396-1.459 3.958-4.063 3.958-7.084C20.833 3.75 17.083 0 12.5 0S4.167 3.75 4.167 8.333c0 3.021 1.562 5.625 3.958 7.084C3.958 16.979.833 20.625 0 25h2.083c1.042-4.792 5.313-8.333 10.417-8.333S21.875 20.208 22.917 25H25c-.833-4.48-3.958-8.125-8.125-9.583zM6.25 8.333c0-3.437 2.813-6.25 6.25-6.25 3.438 0 6.25 2.813 6.25 6.25 0 3.438-2.813 6.25-6.25 6.25s-6.25-2.812-6.25-6.25z" fill="#fff"/></svg>